<svg xmlns="http://www.w3.org/2000/svg" xmlns:xlink="http://www.w3.org/1999/xlink" version="1.1" id="Layer_1" x="0px" y="0px" width="25px" height="25px" viewBox="0 0 100 100" enable-background="new 0 0 100 100" xml:space="preserve">
<g id="Captions">
	<rect x="-192" width="185" height="99"/>
	<rect y="-36" width="100" height="30"/>
	<text transform="matrix(1 0 0 1 66 -19.5)" fill="#ffffff" font-family="'Helvetica'" font-size="2.4">http://thenounproject.com</text>
	<text transform="matrix(1 0 0 1 7.166 -24.5)" fill="#ffffff" font-family="'Helvetica-Bold'" font-size="6.1578">The Noun Project</text>
	<text transform="matrix(1 0 0 1 8.2861 -19.6992)" fill="#ffffff" font-family="'Helvetica-Bold'" font-size="4">Icon Template</text>
	<text transform="matrix(1 0 0 1 -178.5 10.5)" fill="#ffffff" font-family="'Helvetica-Bold'" font-size="6.1578">Reminders</text>
	<line fill="#ffffff" stroke="#FFFFFF" stroke-miterlimit="10" x1="8" y1="-14.5" x2="18" y2="-14.5"/>
	<line fill="#ffffff" stroke="#FFFFFF" stroke-miterlimit="10" x1="-179" y1="16.5" x2="-162" y2="16.5"/>
	<g>
		<g>
			<g>
				<rect x="-170.802" y="31.318" fill="#ffffff" width="8.721" height="8.642"/>
				<path fill="#ffffff" d="M-164.455,42.312h4.747v-4.703h-4.747V42.312z M-159.266,42.749h-5.63V37.17h5.63V42.749      L-159.266,42.749z M-166.221,44.062h8.279v-8.203h-8.279V44.062L-166.221,44.062z M-157.5,44.5h-9.163v-9.079h9.163V44.5      L-157.5,44.5z"/>
				<polygon fill="#ffffff" points="-166.149,44.133 -166.292,43.991 -158.013,35.787 -157.871,35.929     "/>
			</g>
		</g>
	</g>
	<rect x="-179" y="58" fill="none" width="35" height="32.5"/>
	<text transform="matrix(1 0 0 1 -179 60.1582)" fill="#ffffff" font-family="'Helvetica-Bold'" font-size="3">Strokes</text>
	<text transform="matrix(1 0 0 1 -179 65.1582)" fill="#ffffff" font-family="'Helvetica'" font-size="2.4">Try to keep strokes at 4px</text>
	<text transform="matrix(1 0 0 1 -179 70.1582)" fill="#ffffff" font-family="'Helvetica'" font-size="2.4">Minimum stroke weight is 2px</text>
	<text transform="matrix(1 0 0 1 -179 74.6582)" fill="#ffffff" font-family="'Helvetica'" font-size="2.4">For thicker strokes use even </text>
	<text transform="matrix(1 0 0 1 -179 77.6582)" fill="#ffffff" font-family="'Helvetica'" font-size="2.4">numbers: 6px, 8px etc.</text>
	<text transform="matrix(1 0 0 1 -179 82.1582)" fill="#ffffff" font-family="'Helvetica-Bold'" font-size="2.4">Remember to expand strokes </text>
	<text transform="matrix(1 0 0 1 -179 85.1582)" fill="#ffffff" font-family="'Helvetica-Bold'" font-size="2.4">before saving as an SVG </text>
	<rect x="-136.5" y="58" fill="none" width="35" height="32.5"/>
	<text transform="matrix(1 0 0 1 -136.5 60.1582)" fill="#ffffff" font-family="'Helvetica-Bold'" font-size="3">Size</text>
	<text transform="matrix(1 0 0 1 -136.5 65.1582)" fill="#ffffff" font-family="'Helvetica'" font-size="2.4">Cannot be wider or taller than </text>
	<text transform="matrix(1 0 0 1 -136.5 68.6582)" fill="#ffffff" font-family="'Helvetica'" font-size="2.4">100px (artboard size)</text>
	<text transform="matrix(1 0 0 1 -136.5 73.6582)" fill="#ffffff" font-family="'Helvetica'" font-size="2.4">Scale your icon to fill as much of </text>
	<text transform="matrix(1 0 0 1 -136.5 76.6582)" fill="#ffffff" font-family="'Helvetica'" font-size="2.4">the artboard as possible</text>
	<rect x="-94" y="58" fill="none" width="35" height="32.5"/>
	<text transform="matrix(1 0 0 1 -94 60.1582)" fill="#ffffff" font-family="'Helvetica-Bold'" font-size="3">Ungroup</text>
	<text transform="matrix(1 0 0 1 -94 65.1582)" fill="#ffffff" font-family="'Helvetica'" font-size="2.4">If your design has more than one </text>
	<text transform="matrix(1 0 0 1 -94 68.1582)" fill="#ffffff" font-family="'Helvetica'" font-size="2.4">shape, make sure to ungroup</text>
	<rect x="-50" y="58" fill="none" width="35" height="32.5"/>
	<text transform="matrix(1 0 0 1 -50 60.1582)" fill="#ffffff" font-family="'Helvetica-Bold'" font-size="3">Save as</text>
	<text transform="matrix(1 0 0 1 -50 65.1582)" fill="#ffffff" font-family="'Helvetica'" font-size="2.4">Save as .SVG and make sure </text>
	<text transform="matrix(1 0 0 1 -50 68.1582)" fill="#ffffff" font-family="'Helvetica'" font-size="2.4">&#8220;Use Artboards&#8221; is checked</text>
	<text transform="matrix(1.0074 0 0 1 -125.542 30.5947)" fill="#ffffff" font-family="'Helvetica'" font-size="2.5731">100px</text>
	<text transform="matrix(1.0074 0 0 1 -41 39)" fill="#ffffff" font-family="'Helvetica-Bold'" font-size="5.1462">.SVG</text>
	<rect x="-126.514" y="34.815" fill="#ffffff" width="10.261" height="10.185"/>
	<rect x="-126.477" y="31.766" fill="#ffffff" width="0.522" height="2.337"/>
	<rect x="-116.812" y="31.766" fill="#ffffff" width="0.523" height="2.337"/>
	<rect x="-127" y="32.337" fill="#ffffff" width="11.233" height="0.572"/>
	<g>
		<rect x="-83.805" y="33.844" fill="#ffffff" width="10.305" height="10.156"/>
		<rect x="-76.809" y="28.707" fill="#ffffff" width="3.308" height="3.261"/>
	</g>
	<rect x="-178.5" y="22.5" fill="#ffffff" stroke="#FFFFFF" stroke-miterlimit="10" width="30" height="30"/>
	<rect x="-136.5" y="22.5" fill="#ffffff" stroke="#FFFFFF" stroke-miterlimit="10" width="30" height="30"/>
	<rect x="-93.5" y="22.5" fill="#ffffff" stroke="#FFFFFF" stroke-miterlimit="10" width="30" height="30"/>
	<rect x="-49.5" y="22.5" fill="#ffffff" stroke="#FFFFFF" stroke-miterlimit="10" width="30" height="30"/>
</g>
<path fill="#ffffff" d="M79.978,29.644c-10.683,0-19.346,8.661-19.346,19.346c0,10.688,8.663,19.35,19.346,19.35  s19.346-8.661,19.346-19.35C99.323,38.304,90.66,29.644,79.978,29.644z M88.385,51.908H71.568c-1.614,0-2.918-1.308-2.918-2.919  c0-1.61,1.304-2.919,2.918-2.919h16.816c1.612,0,2.92,1.309,2.92,2.919C91.305,50.601,89.997,51.908,88.385,51.908z"/>
<path fill="#ffffff" d="M50.784,39.312V12.049c-1.631-1.634-4.277-1.634-5.911,0L28.06,28.863L2.981,31.846  C1.334,31.846,0,33.18,0,34.829v28.325c0,1.646,1.334,2.979,2.981,2.979l25.079,2.986l16.814,16.814  c1.633,1.634,4.279,1.634,5.911,0V59.352c1.765-2.926,2.782-6.353,2.784-10.021C53.566,45.665,52.549,42.242,50.784,39.312z   M12.316,57.862c0,0.728-0.839,1.315-1.878,1.315c-1.037,0-1.878-0.588-1.878-1.315V40.12c0-0.728,0.841-1.315,1.878-1.315  c1.039,0,1.878,0.587,1.878,1.315V57.862z"/>
</svg>